<svg id="Capa_1" enable-background="new 0 0 512 512" height="512" viewBox="0 0 512 512" width="512" xmlns="http://www.w3.org/2000/svg"><g><path d="m512 256c0 42.1-10.17 81.84-28.18 116.87-73.239 42.605-128.54 70.538-227.82 70.538-44.23 0-85.84 57.372-122.14 37.622-79.74-43.37-133.86-127.88-133.86-225.03 0-141.38 114.62-256 256-256s256 114.62 256 256z" fill="#80b4fb"/><path d="m483.82 372.87c-42.46 82.61-128.54 139.13-227.82 139.13-14.3 0-28.32-1.17-41.98-3.43-28.59-4.71-55.59-14.17-80.16-27.54l39.36-147.27 12.34-46.18 9.61-35.96h256.24l21.96 82.14z" fill="#687780"/><path d="m267.92 303.08-53.9 205.49c-28.59-4.71-55.59-14.17-80.16-27.54l51.7-193.45z" fill="#546066"/><path d="m473.37 333.76c-34.56 45.04-88.93 74.07-150.08 74.07s-115.52-29.03-150.07-74.07l12.34-46.18 9.61-35.96h256.24z" fill="#546066"/><path d="m511.34 189.35c0 104.41-84.64 189.05-189.05 189.05-68.55 0-128.58-36.49-161.73-91.1-5.73-9.43-10.65-19.41-14.68-29.84-8.16-21.13-12.64-44.1-12.64-68.11 0-5.67.25-11.29.74-16.83.99-11.23 2.96-22.18 5.83-32.76 21.78-80.35 95.23-139.46 182.48-139.46 104.41 0 189.05 84.64 189.05 189.05z" fill="#dd636e"/><path d="m334.91 377.99c-4.17.27-8.38.41-12.62.41-68.55 0-128.58-36.49-161.73-91.1-5.73-9.43-10.65-19.41-14.68-29.84-8.16-21.13-12.64-44.1-12.64-68.11 0-5.67.25-11.29.74-16.83.99-11.23 2.96-22.18 5.83-32.76 21.78-80.35 95.23-139.46 182.48-139.46 4.26 0 8.48.14 12.67.42-81.66 5.37-149.16 62.59-169.88 139.04-2.87 10.58-4.84 21.53-5.83 32.76-.49 5.54-.74 11.16-.74 16.83 0 24.01 4.48 46.98 12.64 68.11 4.03 10.43 8.95 20.41 14.68 29.84 31.09 51.22 85.84 86.51 149.08 90.69z" fill="#da4a54"/><path d="m330.41 200.66c-.5 3.03-1.64 6.04-3.55 8.86l-24.64 36.36c-9.59 14.14-30.89 12.61-38.34-2.76l-2.33-4.8-100.99 48.98c-5.73-9.43-10.65-19.41-14.68-29.84l101.16-49.06-2.34-4.81c-2.48-5.12-2.8-10.5-1.49-15.36l-109.23-15.71c.99-11.23 2.96-22.18 5.83-32.76l121 17.41.76-5.29c2.43-16.91 22.26-24.85 35.68-14.28l34.53 27.15c12.18 9.58 10.81 27.85-1.37 35.91z" fill="#da4a54"/><path d="m461.34 189.35c0 76.67-62.38 139.05-139.05 139.05-48.66 0-91.56-25.12-116.41-63.08-6.05-9.23-11.03-19.23-14.76-29.8-5.1-14.46-7.88-30-7.88-46.17 0-3.26.11-6.49.34-9.7.78-11.32 2.92-22.27 6.27-32.69 17.97-56.01 70.55-96.66 132.44-96.66 76.67 0 139.05 62.38 139.05 139.05z" fill="#f9f6f9"/><path d="m330.41 200.66c-.5 3.03-1.64 6.04-3.55 8.86l-24.64 36.36c-9.59 14.14-30.89 12.61-38.34-2.76l-2.33-4.8-55.67 27c-6.05-9.23-11.03-19.23-14.76-29.8l55.92-27.12-2.34-4.81c-2.48-5.12-2.8-10.5-1.49-15.36l-59.63-8.58c.78-11.32 2.92-22.27 6.27-32.69l70.96 10.21.76-5.29c2.43-16.91 22.26-24.85 35.68-14.28l34.53 27.15c12.18 9.58 10.81 27.85-1.37 35.91z" fill="#dddaec"/><circle cx="322.289" cy="189.348" fill="#dd636e" r="89.05"/><circle cx="322.289" cy="189.348" fill="#f9f6f9" r="39.05"/><g><path d="m77.272 163.482-44.565 7.045c-10.025 1.585-15.105 12.957-9.597 21.481l15.93 24.652 40.698 10.4 34.191-22.239-22.677-35.093c-3.014-4.664-8.495-7.113-13.98-6.246z" fill="#9d6b6b"/><path d="m97.004 288.298-44.565 7.045c-10.025 1.585-18.365-7.666-15.755-17.473l7.548-28.363 35.505-22.447 39.384 10.607-10.746 40.377c-1.427 5.366-5.886 9.386-11.371 10.254z" fill="#8b5e5e"/><path d="m40.273 199.113h222.137v33.254h-222.137z" fill="#545058" transform="matrix(.988 -.156 .156 .988 -31.832 26.279)"/><path d="m41.572 215.638h222.137v16.627h-222.137z" fill="#3e3b41" transform="matrix(.988 -.156 .156 .988 -33.098 26.583)"/><g><path d="m321.323 208.322-34.147 27.635c-13.28 10.748-33.216 3.089-35.884-13.786l-6.86-43.39c-2.668-16.875 13.933-30.31 29.881-24.183l41.006 15.754c15.95 6.128 19.284 27.222 6.004 37.97z" fill="#d6d6d6"/><path d="m329.289 187.607c.398 2.519-2.851 5.616-9.942 8.213l-36.396 13.342c-14.158 5.19-33.001 4.479-33.911-1.28l2.259 14.29c2.669 16.882 22.609 24.539 35.89 13.794l34.135-27.644c6.652-5.369 9.131-13.336 7.965-20.715z" fill="#c2c2c2"/></g></g><g><path d="m145.685 27.896-40.864-19.125c-9.192-4.302-19.771 2.273-19.982 12.42l-.611 29.344 27.89 31.411 40.781.728.87-41.773c.115-5.553-3.054-10.651-8.084-13.005z" fill="#ffd064"/><path d="m92.121 142.347-40.864-19.125c-9.192-4.302-10.921-16.637-3.265-23.3l22.14-19.269 41.986 1.292 26.685 30.847-31.517 27.43c-4.19 3.646-10.135 4.479-15.165 2.125z" fill="#ffc250"/><path d="m66.707 96.047h222.137v33.254h-222.137z" fill="#545058" transform="matrix(.906 .424 -.424 .906 64.522 -64.733)"/><path d="m63.183 111.891h222.137v16.627h-222.137z" fill="#3e3b41" transform="matrix(.906 .424 -.424 .906 67.382 -62.529)"/><g><path d="m322.746 201.738-43.767 3.768c-17.022 1.465-29.247-16.046-22.005-31.52l18.621-39.787c7.242-15.474 28.519-17.306 38.299-3.297l25.146 36.019c9.78 14.009.728 33.352-16.294 34.817z" fill="#d6d6d6"/><path d="m340.947 189.039c-1.081 2.31-5.507 3.055-12.836 1.235l-37.624-9.333c-14.636-3.631-29.847-14.773-27.376-20.054l-6.132 13.103c-7.245 15.48 4.985 32.992 22.005 31.529l43.762-3.781c8.518-.721 15.035-5.933 18.201-12.699z" fill="#c2c2c2"/></g></g></g></svg>